<?xml version="1.0" standalone="no"?>
<!DOCTYPE svg PUBLIC "-//W3C//DTD SVG 20010904//EN"
 "http://www.w3.org/TR/2001/REC-SVG-20010904/DTD/svg10.dtd">
<svg version="1.0" xmlns="http://www.w3.org/2000/svg"
 width="499.000000pt" height="499.000000pt" viewBox="0 0 499.000000 499.000000"
 preserveAspectRatio="xMidYMid meet">
<metadata>
Created by potrace 1.11, written by Peter Selinger 2001-2013
</metadata>
<g transform="translate(0.000000,499.000000) scale(0.100000,-0.100000)"
fill="#000000" stroke="none">
<path d="M2592 4348 c-9 -17 -42 -61 -73 -97 -30 -36 -72 -93 -94 -126 -21
-33 -48 -70 -59 -83 -11 -12 -29 -38 -40 -56 -59 -98 -165 -232 -257 -326 -57
-58 -130 -140 -163 -183 -32 -42 -66 -77 -75 -77 -9 0 -77 20 -151 44 -82 27
-181 51 -250 61 -63 9 -173 25 -245 36 -71 11 -197 27 -280 35 -82 8 -211 22
-285 29 -74 8 -206 14 -292 15 -144 0 -158 -2 -158 -18 0 -17 36 -72 105 -162
19 -25 47 -65 62 -90 32 -54 80 -115 147 -190 49 -55 132 -161 193 -248 18
-25 52 -66 76 -91 24 -25 58 -66 75 -91 16 -25 47 -61 67 -80 20 -19 73 -80
118 -135 44 -55 102 -123 129 -152 26 -28 48 -56 48 -62 0 -5 -6 -22 -14 -38
-14 -26 -31 -64 -93 -203 -33 -72 -113 -312 -113 -337 0 -10 -9 -36 -20 -58
-11 -22 -20 -49 -20 -60 0 -19 -17 -80 -51 -184 -11 -32 -15 -56 -39 -236 -6
-44 -15 -82 -19 -85 -14 -9 -31 -98 -31 -164 l0 -66 38 0 c37 1 98 20 247 79
44 18 103 39 130 48 63 19 207 87 303 141 41 23 81 42 91 42 9 0 52 25 96 55
43 30 84 55 90 55 7 0 25 10 41 22 15 13 42 32 60 43 18 11 57 37 88 58 31 20
59 37 63 37 4 0 37 20 74 45 37 25 70 45 74 45 11 0 142 108 179 148 17 18 46
45 64 59 l34 25 56 -54 c71 -67 124 -111 197 -163 32 -22 74 -54 94 -70 20
-17 46 -37 57 -45 56 -39 146 -109 209 -165 78 -69 130 -102 256 -163 47 -23
108 -59 136 -79 27 -21 79 -51 114 -67 35 -16 73 -33 84 -39 11 -6 44 -23 73
-39 30 -15 65 -37 79 -48 14 -11 39 -20 54 -20 l29 0 0 91 c0 78 -5 107 -36
197 -19 59 -39 116 -43 127 -16 40 -33 91 -46 140 -8 28 -23 75 -34 103 -12
29 -21 63 -21 76 0 13 -6 29 -14 35 -7 6 -16 26 -19 45 -3 18 -15 53 -26 77
-12 23 -21 49 -21 56 0 16 -40 110 -109 253 -29 62 -45 113 -57 185 -24 144
-25 136 24 150 23 7 48 17 55 22 7 5 32 15 57 22 25 7 81 29 125 48 88 39 223
90 270 102 17 4 69 29 117 55 48 25 93 46 101 46 8 0 20 7 27 15 7 8 19 15 27
15 8 0 43 13 77 29 101 48 158 72 215 92 29 10 75 32 102 49 27 16 53 30 57
30 17 0 72 60 72 79 0 21 -27 41 -57 41 -10 1 -36 9 -58 20 -22 11 -50 19 -61
20 -12 0 -35 7 -50 15 -16 8 -45 18 -64 21 -19 3 -52 12 -73 20 -20 8 -50 14
-66 14 -16 0 -44 6 -62 14 -86 36 -405 65 -939 86 -146 6 -276 13 -290 16 -28
6 -49 45 -77 139 -8 27 -21 59 -29 70 -8 11 -14 26 -14 33 0 8 -11 36 -25 64
-14 27 -25 57 -25 66 0 9 -7 26 -15 36 -8 11 -15 30 -15 42 0 13 -4 26 -10 29
-5 3 -17 23 -26 43 -9 20 -27 62 -41 92 -27 59 -49 108 -82 181 -11 26 -23 60
-27 75 -3 16 -20 71 -37 123 -24 77 -28 100 -20 122 19 50 -19 56 -45 7z"/>
</g>
</svg>
